<svg width="563" height="399" viewBox="0 0 563 399" fill="none" xmlns="http://www.w3.org/2000/svg">
<path d="M127.454 346.95C127.346 362.993 126.444 379.011 124.754 394.904C124.695 395.462 124.63 396.02 124.571 396.578L9.25007 395.738C8.91147 395.184 8.5782 394.623 8.2553 394.056C7.17865 392.177 6.16958 390.245 5.24325 388.246C0.790872 378.618 -1.24747 367.345 0.795147 359.567L0.831722 359.446C1.27265 357.743 1.96745 356.17 2.87622 354.818C7.53335 347.988 16.9496 349.126 25.4946 354.639C17.8303 343.709 11.7275 329.916 11.2638 317.605C10.8091 305.596 15.6286 297.018 20.8559 289.728C21.0274 289.487 21.1989 289.252 21.3704 289.018C21.4536 288.897 21.5419 288.784 21.6249 288.663C25.7033 283.107 30.458 277.631 37.3402 278.293C44.8881 279.021 53.2565 287.258 59.1241 296.857C64.9917 306.448 68.8909 317.345 72.8431 327.979C76.8004 338.606 81.0819 349.506 87.4322 358.589C78.8312 344.415 71.8966 328.288 69.3349 312.604C66.7733 296.919 69.0277 281.855 76.6932 274.468C79.0203 272.295 81.7132 270.879 84.5464 270.34C84.8771 270.268 85.213 270.21 85.5542 270.158C92.6503 269.107 101.123 272.304 108.331 279.947C116.27 288.363 121.774 300.839 124.512 312.682C127.251 324.526 127.543 335.928 127.454 346.95Z" fill="#F2F2F2"/>
<path d="M52.0047 396.05L49.7995 396.034C49.0994 395.463 48.3959 394.9 47.6891 394.343C47.2515 393.983 46.8089 393.636 46.366 393.283C39.0515 387.463 31.6913 381.88 24.2853 376.534C16.8861 371.185 9.4496 366.081 1.97594 361.224C1.77783 361.112 1.61621 360.913 1.51915 360.661C1.4221 360.41 1.39573 360.122 1.44466 359.848C1.45267 359.812 1.46508 359.778 1.48141 359.747C1.58565 359.492 1.81863 359.386 2.15867 359.604C3.07536 360.203 3.99735 360.802 4.91398 361.414C12.408 366.354 19.87 371.541 27.2997 376.974C34.7243 382.404 42.1066 388.075 49.4467 393.985C49.601 394.107 49.7555 394.236 49.9099 394.359C50.6098 394.922 51.3048 395.486 52.0047 396.05Z" fill="white"/>
<path d="M80.4374 396.257L79.0738 396.247C78.7662 395.686 78.464 395.125 78.1564 394.564C70.9306 381.363 63.7062 368.161 56.4834 354.959C44.6552 333.346 32.8305 311.732 21.0094 290.119C20.9393 290.003 20.8872 289.87 20.856 289.728C20.7549 289.249 21.0247 288.968 21.3705 289.018C21.5162 289.045 21.6559 289.113 21.7802 289.216C21.9044 289.319 22.0103 289.455 22.0909 289.616C28.7225 301.736 35.3523 313.853 41.9805 325.964C53.7471 347.47 65.5121 368.973 77.2754 390.473C78.0236 391.838 78.7718 393.21 79.5201 394.574C79.8276 395.135 80.1351 395.696 80.4374 396.257Z" fill="white"/>
<path d="M110.816 385.94C110.746 388.934 110.594 391.88 110.395 394.799C110.357 395.357 110.318 395.916 110.28 396.474L108.849 396.463C108.893 395.905 108.937 395.347 108.975 394.789C109.277 390.572 109.492 386.307 109.521 381.926C109.559 369.781 108.651 357.662 106.81 345.756C104.853 332.937 102.043 320.363 98.4122 308.179C94.6014 295.328 90.0069 282.895 84.6728 271C84.5723 270.806 84.5276 270.572 84.5465 270.34C84.6055 269.808 85.1484 269.651 85.5543 270.158C85.6345 270.258 85.7035 270.372 85.7594 270.496C86.4194 271.975 87.0673 273.458 87.7032 274.945C92.8406 286.907 97.238 299.382 100.853 312.254C104.297 324.479 106.917 337.071 108.682 349.888C110.336 361.779 111.051 373.859 110.816 385.94Z" fill="white"/>
<path d="M510.304 309.049C510.304 301.843 489.487 296.002 463.808 296.002C438.13 296.002 417.313 301.843 417.313 309.049C417.313 313.668 425.871 317.722 438.772 320.041V391.528C438.772 393.135 439.262 394.676 440.134 395.812C441.006 396.948 442.189 397.586 443.422 397.586C444.655 397.586 445.838 396.948 446.71 395.812C447.582 394.676 448.072 393.135 448.072 391.528V321.329C452.987 321.825 458.284 322.097 463.808 322.097C469.333 322.097 474.63 321.825 479.545 321.329V391.528C479.545 393.135 480.035 394.676 480.907 395.812C481.779 396.948 482.962 397.586 484.195 397.586C485.428 397.586 486.611 396.948 487.483 395.812C488.355 394.676 488.844 393.135 488.844 391.528V320.041C501.746 317.722 510.304 313.668 510.304 309.049Z" fill="#CCCCCC"/>
<path d="M468.95 189.625C480.011 189.625 488.978 177.942 488.978 163.53C488.978 149.118 480.011 137.435 468.95 137.435C457.888 137.435 448.921 149.118 448.921 163.53C448.921 177.942 457.888 189.625 468.95 189.625Z" fill="#2F2E41"/>
<path d="M419.106 386.797H410.337L406.165 342.726H419.108L419.106 386.797Z" fill="#A0616A"/>
<path d="M404.073 383.532H420.985V397.406H393.424C393.424 395.584 393.699 393.78 394.234 392.097C394.77 390.413 395.554 388.884 396.543 387.596C397.532 386.307 398.706 385.285 399.997 384.588C401.289 383.891 402.674 383.532 404.073 383.532Z" fill="#2F2E41"/>
<path d="M405.417 380.421L397.05 376.999L403.196 333.323L415.545 338.371L405.417 380.421Z" fill="#A0616A"/>
<path d="M391.823 371.441L407.96 378.039L404.772 391.276L378.475 380.524C378.893 378.786 379.571 377.172 380.468 375.775C381.366 374.377 382.466 373.224 383.705 372.381C384.945 371.537 386.3 371.02 387.692 370.859C389.085 370.698 390.489 370.895 391.823 371.441Z" fill="#2F2E41"/>
<path d="M408.27 362.837C407.886 362.837 407.505 362.746 407.145 362.57L400.694 359.418C399.969 359.061 399.368 358.377 398.998 357.49C398.629 356.603 398.516 355.573 398.681 354.587C400.305 345.072 405.841 312.676 408.872 295.3C412.467 274.689 464.912 270.86 467.143 270.707L467.326 270.694L473.225 280.353C475.357 289.281 474.682 296.244 471.217 301.05C461.108 315.073 430.925 306.372 427.326 305.27L411.284 360.136C411.05 360.931 410.637 361.614 410.099 362.096C409.561 362.578 408.923 362.836 408.27 362.837Z" fill="#2F2E41"/>
<path d="M417.569 369.36C417.185 369.36 416.804 369.27 416.445 369.094L409.993 365.942C409.269 365.585 408.667 364.901 408.298 364.014C407.928 363.127 407.815 362.097 407.98 361.111C409.604 351.596 415.14 319.2 418.171 301.824C421.767 281.213 474.211 277.383 476.442 277.231L476.625 277.218L482.525 286.877C484.656 295.804 483.981 302.768 480.516 307.574C470.407 321.596 440.225 312.896 436.626 311.794L420.583 366.66C420.349 367.454 419.936 368.138 419.398 368.62C418.86 369.102 418.222 369.36 417.569 369.36Z" fill="#2F2E41"/>
<path d="M398.903 235.139C399.14 235.552 399.352 235.989 399.536 236.445L434.815 241.288L439.894 232.216L451.404 240.412L441.429 262.426L398.162 248.053C397.07 249.44 395.68 250.36 394.177 250.693C392.674 251.025 391.129 250.754 389.747 249.914C388.366 249.075 387.213 247.707 386.442 245.993C385.672 244.279 385.32 242.3 385.434 240.319C385.547 238.339 386.121 236.45 387.079 234.905C388.037 233.359 389.333 232.23 390.795 231.668C392.257 231.105 393.816 231.136 395.264 231.756C396.713 232.376 397.982 233.556 398.903 235.139L398.903 235.139Z" fill="#A0616A"/>
<path d="M480.887 290.574C480.377 290.572 479.875 290.412 479.421 290.107C472.367 285.433 458.63 277.34 445.891 275.646C445.455 275.59 445.033 275.416 444.652 275.135C444.27 274.855 443.938 274.473 443.677 274.015C443.41 273.552 443.22 273.023 443.117 272.46C443.015 271.897 443.002 271.313 443.081 270.743C444.23 262.453 446.867 241.343 446.527 224.423C446.427 219.221 447.689 214.129 450.104 209.985C452.52 205.841 455.946 202.891 459.819 201.62C462.151 200.819 464.519 200.211 466.91 199.799C469.658 199.346 472.449 199.737 475.06 200.942C477.671 202.146 480.029 204.131 481.945 206.737C483.862 209.342 485.283 212.497 486.095 215.947C486.908 219.397 487.089 223.047 486.624 226.604C484.352 244.138 482.062 268.626 484.052 285.721C484.144 286.487 484.071 287.271 483.841 287.987C483.611 288.702 483.234 289.321 482.751 289.774C482.211 290.291 481.558 290.571 480.887 290.574Z" fill="white"/>
<path d="M447.18 245.978C446.741 245.977 446.306 245.859 445.902 245.63L436.712 240.447C435.929 240.004 435.313 239.175 434.999 238.141C434.685 237.107 434.699 235.953 435.037 234.933L442.141 213.551C442.57 212.259 443.19 211.089 443.965 210.109C444.741 209.129 445.657 208.357 446.662 207.838C447.667 207.32 448.74 207.064 449.821 207.086C450.901 207.108 451.968 207.408 452.959 207.967C453.951 208.526 454.849 209.334 455.601 210.346C456.352 211.357 456.944 212.551 457.341 213.861C457.739 215.17 457.934 216.568 457.917 217.976C457.899 219.384 457.669 220.773 457.239 222.065L450.135 243.447C449.885 244.198 449.472 244.837 448.948 245.287C448.423 245.736 447.808 245.977 447.18 245.978V245.978Z" fill="white"/>
<path d="M468.218 192.525C477.921 192.525 485.786 182.277 485.786 169.635C485.786 156.994 477.921 146.745 468.218 146.745C458.515 146.745 450.649 156.994 450.649 169.635C450.649 182.277 458.515 192.525 468.218 192.525Z" fill="#A0616A"/>
<path d="M450.333 158.389C458.654 165.008 468.036 169.035 477.748 170.158L474.858 165.647C476.962 166.661 479.176 167.234 481.418 167.344C483.657 167.299 486.003 166.176 487.274 163.773C487.841 162.579 488.177 161.224 488.255 159.824C488.333 158.423 488.15 157.019 487.721 155.731C486.84 153.161 485.47 150.928 483.739 149.244C480.672 146.083 477.053 143.96 473.203 143.063C469.353 142.167 465.393 142.525 461.676 144.107C459.126 145.1 456.842 147.008 455.086 149.614C453.421 152.291 450.214 154.676 451.067 157.938L450.333 158.389Z" fill="#2F2E41"/>
<path d="M471.172 139.917C465.63 132.596 458.925 126.946 451.527 123.366C446.778 121.074 441.609 119.658 436.645 120.959C431.68 122.261 426.985 126.736 425.6 133.082C424.467 138.272 425.637 143.859 427.394 148.744C429.152 153.629 431.499 158.159 432.92 163.227C434.37 168.397 434.806 173.958 434.189 179.404C433.571 184.85 431.92 190.009 429.384 194.412C426.848 198.815 423.508 202.323 419.667 204.618C415.827 206.913 411.607 207.922 407.391 207.553C412.269 208.405 416.765 211.392 421.533 212.982C426.301 214.572 431.929 214.464 435.472 210.013C439.221 205.305 439.296 197.649 439.115 190.868C438.846 180.789 438.576 170.71 438.307 160.631C438.169 155.491 438.052 150.186 439.475 145.388C440.897 140.59 444.279 136.389 448.226 136.433C451.218 136.466 453.866 138.827 456.266 141.156C458.665 143.485 461.204 145.97 464.184 146.316C467.165 146.662 470.567 143.789 470.344 139.902" fill="#2F2E41"/>
<path d="M438.68 284.694C437.516 284.692 436.367 284.354 435.315 283.704C434.263 283.054 433.335 282.108 432.598 280.934C431.86 279.76 431.332 278.388 431.051 276.916C430.769 275.445 430.742 273.91 430.971 272.423C431.2 270.935 431.679 269.533 432.374 268.316C433.069 267.099 433.962 266.098 434.99 265.386C436.017 264.673 437.153 264.266 438.316 264.194C439.479 264.122 440.64 264.387 441.714 264.97H441.715C442.038 265.148 442.351 265.355 442.653 265.59L474.656 246.869L475.555 235.561L489.351 235.08L489.26 253.907C489.243 256.088 488.686 258.203 487.673 259.94C486.66 261.676 485.245 262.941 483.636 263.546L446.21 277.426C446.137 277.748 446.051 278.065 445.953 278.375C445.352 280.244 444.342 281.84 443.048 282.964C441.755 284.088 440.235 284.69 438.68 284.694V284.694Z" fill="#A0616A"/>
<path d="M488.182 244.309C487.79 244.567 487.361 244.719 486.922 244.753L476.927 245.553C476.075 245.62 475.237 245.244 474.598 244.508C473.959 243.771 473.57 242.735 473.516 241.625L472.419 218.37C472.351 216.964 472.496 215.554 472.847 214.221C473.197 212.888 473.746 211.658 474.461 210.602C475.177 209.546 476.045 208.683 477.017 208.065C477.989 207.446 479.044 207.083 480.124 206.997C481.203 206.91 482.285 207.102 483.307 207.561C484.33 208.019 485.273 208.736 486.082 209.67C486.892 210.605 487.552 211.738 488.025 213.004C488.499 214.271 488.775 215.647 488.84 217.054L489.937 240.309C489.975 241.126 489.83 241.939 489.518 242.65C489.206 243.36 488.742 243.937 488.182 244.309L488.182 244.309Z" fill="white"/>
<path d="M466.459 287.045H409.949C409.285 287.045 408.648 286.702 408.178 286.09C407.709 285.478 407.445 284.648 407.445 283.783C407.445 282.918 407.709 282.089 408.178 281.477C408.648 280.865 409.285 280.521 409.949 280.521H466.459C467.123 280.521 467.759 280.865 468.229 281.477C468.698 282.089 468.962 282.918 468.962 283.783C468.962 284.648 468.698 285.478 468.229 286.09C467.759 286.702 467.123 287.045 466.459 287.045Z" fill="#3F3D56"/>
<path d="M385.271 280.987V235.321C385.272 233.715 385.762 232.175 386.634 231.04C387.506 229.904 388.687 229.265 389.92 229.263H453.583C454.816 229.265 455.998 229.904 456.869 231.04C457.741 232.175 458.231 233.715 458.233 235.321V280.987C458.231 282.593 457.741 284.133 456.869 285.269C455.998 286.405 454.816 287.043 453.583 287.045H389.92C388.687 287.043 387.506 286.405 386.634 285.269C385.762 284.133 385.272 282.593 385.271 280.987Z" fill="#3F3D56"/>
<path d="M421.751 263.746C424.122 263.746 426.043 261.243 426.043 258.154C426.043 255.066 424.122 252.562 421.751 252.562C419.381 252.562 417.459 255.066 417.459 258.154C417.459 261.243 419.381 263.746 421.751 263.746Z" fill="white"/>
<path d="M197.985 204.415C197.406 203.271 196.641 202.308 195.744 201.591C194.848 200.875 193.842 200.423 192.797 200.268C191.752 200.114 190.694 200.259 189.697 200.694C188.7 201.13 187.788 201.845 187.026 202.789L164.312 187.514L165.724 204.722L187.077 216.59C188.38 218.152 190.077 219.038 191.847 219.08C193.617 219.121 195.337 218.315 196.682 216.814C198.026 215.314 198.902 213.222 199.142 210.937C199.382 208.652 198.971 206.331 197.985 204.415H197.985Z" fill="#FFB8B8"/>
<path d="M177.799 211.341C177.388 211.587 176.942 211.717 176.49 211.723C176.038 211.729 175.589 211.612 175.174 211.378L153.599 199.184C146.222 195.016 140.258 187.499 136.816 178.03L125.474 146.836C124.637 145.435 124.02 143.833 123.658 142.121C123.297 140.409 123.198 138.621 123.367 136.859C123.537 135.097 123.971 133.396 124.645 131.853C125.319 130.31 126.221 128.955 127.297 127.866C128.374 126.778 129.604 125.976 130.919 125.507C132.233 125.038 133.606 124.912 134.958 125.134C136.31 125.357 137.615 125.925 138.798 126.805C139.982 127.686 141.02 128.862 141.855 130.265L161.793 178.461L180.203 196.58C180.729 197.101 181.121 197.82 181.324 198.64C181.527 199.46 181.532 200.342 181.337 201.166L179.531 208.77C179.336 209.586 178.956 210.304 178.441 210.831C178.243 211.034 178.027 211.205 177.799 211.341Z" fill="#CCCCCC"/>
<path d="M124.974 110.151C134.677 110.151 142.543 99.9026 142.543 87.2607C142.543 74.6189 134.677 64.3707 124.974 64.3707C115.271 64.3707 107.405 74.6189 107.405 87.2607C107.405 99.9026 115.271 110.151 124.974 110.151Z" fill="#FFB8B8"/>
<path d="M132.091 387.536H140.86L145.032 343.465H132.089L132.091 387.536Z" fill="#FFB8B8"/>
<path d="M157.773 398.144L130.212 398.146L130.211 384.272L147.124 384.271C149.948 384.271 152.657 385.732 154.654 388.334C156.651 390.936 157.773 394.465 157.773 398.144L157.773 398.144Z" fill="#2F2E41"/>
<path d="M103.478 387.536H112.247L116.42 343.465H103.476L103.478 387.536Z" fill="#FFB8B8"/>
<path d="M129.161 398.144L101.599 398.146L101.598 384.272L118.511 384.271C121.335 384.271 124.044 385.732 126.041 388.334C128.038 390.936 129.16 394.465 129.161 398.144L129.161 398.144Z" fill="#2F2E41"/>
<path d="M100.416 374.922C100.114 374.472 99.8886 373.944 99.756 373.372C99.6234 372.8 99.5861 372.197 99.6468 371.605L115.001 221.573L153.147 230.013L157.219 226.83L146.691 369.182C146.603 370.143 146.264 371.036 145.73 371.709C145.197 372.382 144.501 372.794 143.761 372.877L132.21 374.131C131.751 374.181 131.289 374.102 130.855 373.899C130.421 373.696 130.026 373.374 129.696 372.955C129.366 372.536 129.109 372.03 128.942 371.47C128.775 370.911 128.703 370.311 128.729 369.711L131.72 301.918C131.725 301.803 131.697 301.689 131.642 301.599C131.587 301.509 131.508 301.449 131.42 301.43C131.333 301.412 131.243 301.436 131.169 301.499C131.094 301.561 131.04 301.657 131.017 301.769L116.222 373.251C116.037 374.14 115.633 374.926 115.071 375.487C114.51 376.048 113.822 376.352 113.114 376.353H102.838C102.379 376.353 101.926 376.226 101.508 375.979C101.09 375.732 100.718 375.371 100.416 374.922Z" fill="#2F2E41"/>
<path d="M126.834 232.074C126.396 231.558 125.833 231.257 125.243 231.225C124.653 231.193 124.073 231.432 123.604 231.899L115.977 239.628C115.562 240.049 115.074 240.332 114.555 240.451C114.037 240.569 113.504 240.52 113.004 240.308C112.503 240.096 112.05 239.727 111.685 239.233C111.319 238.74 111.052 238.137 110.907 237.478C107.166 220.409 98.6908 177.443 100.779 147.202C101.962 130.061 113.323 117.033 126.105 118.126C134.842 118.885 140.591 125.453 143.19 137.646C149.573 167.582 156.587 222.495 157.928 233.2C158.034 234.031 157.945 234.884 157.672 235.647C157.399 236.41 156.956 237.048 156.4 237.477C152.792 240.299 148.669 241.811 144.46 241.855C139.368 241.855 133.262 239.545 126.834 232.074Z" fill="#CCCCCC"/>
<path d="M129.712 242.724C129.797 241.358 129.651 239.985 129.285 238.7C128.919 237.416 128.342 236.252 127.593 235.29C126.844 234.328 125.943 233.591 124.952 233.132C123.961 232.673 122.905 232.503 121.858 232.633L111.22 202.351L104.18 217.027L115.362 243.534C115.646 245.81 116.562 247.872 117.935 249.328C119.309 250.784 121.044 251.533 122.813 251.433C124.582 251.333 126.261 250.391 127.532 248.786C128.804 247.181 129.579 245.024 129.712 242.724H129.712Z" fill="#FFB8B8"/>
<path d="M110.547 231.943C110.107 231.806 109.694 231.55 109.336 231.191C108.977 230.833 108.68 230.38 108.464 229.862L97.2632 202.92C93.4325 193.709 92.3002 182.998 94.0769 172.781L99.9271 139.115C99.9324 137.34 100.206 135.584 100.733 133.946C101.26 132.309 102.029 130.823 102.996 129.573C103.964 128.323 105.111 127.334 106.373 126.662C107.634 125.991 108.985 125.649 110.347 125.658C111.71 125.667 113.058 126.025 114.314 126.713C115.57 127.401 116.71 128.404 117.668 129.666C118.627 130.929 119.385 132.424 119.899 134.068C120.413 135.712 120.674 137.472 120.666 139.247L113.526 193.201L119.43 222.261C119.598 223.094 119.565 223.975 119.336 224.784C119.108 225.592 118.694 226.29 118.151 226.782L113.127 231.313C112.588 231.798 111.948 232.058 111.293 232.058C111.042 232.058 110.791 232.02 110.547 231.943Z" fill="#CCCCCC"/>
<path opacity="0.2" d="M119.241 162.002L112.803 197.416L122.102 227.239L115.664 198.348L119.241 162.002Z" fill="black"/>
<path d="M114.949 106.083C113.386 106.121 111.833 105.755 110.379 105.006C109.74 104.685 109.076 104.421 108.437 104.1C102.799 101.262 99.0856 93.4392 98.9526 85.5665C98.8196 77.6938 101.949 70.0526 106.595 65.0168C111.242 59.9811 117.261 57.3957 123.287 56.7978C129.779 56.1538 137.089 58.2987 140.716 65.3423C141.682 67.2172 142.357 69.4919 141.785 71.7557C141.613 72.4388 141.307 73.0514 140.897 73.532C139.277 75.4098 137.662 73.9979 136.011 73.8731C133.741 73.7016 131.702 76.0954 130.969 78.8997C130.237 81.7039 130.559 84.7912 131.151 87.6515C131.602 89.3726 131.886 91.1603 131.997 92.9731C132.045 93.8821 131.913 94.7919 131.616 95.6163C131.318 96.4407 130.863 97.1524 130.295 97.6839C128.877 98.8009 127.014 98.1544 125.595 97.0392C124.176 95.9239 122.95 94.3733 121.416 93.5526C119.883 92.732 117.824 92.914 116.932 94.7337C116.648 95.3959 116.456 96.1178 116.365 96.8666C115.565 101.615 115.749 101.335 114.949 106.083L114.949 106.083Z" fill="#2F2E41"/>
<path d="M267.276 183.763C266.984 183.283 266.781 182.722 266.681 182.124C266.581 181.525 266.587 180.905 266.698 180.31C269.366 165.751 269.366 150.578 266.698 136.019C266.587 135.424 266.581 134.803 266.681 134.205C266.781 133.607 266.984 133.046 267.276 132.565C267.561 132.092 267.926 131.709 268.342 131.447C268.757 131.184 269.214 131.049 269.676 131.05H298.197C298.926 131.052 299.631 131.391 300.186 132.006C300.741 132.622 301.11 133.474 301.228 134.411C303.088 150.154 303.088 166.175 301.228 181.918C301.11 182.855 300.741 183.707 300.186 184.323C299.631 184.938 298.926 185.277 298.197 185.278H269.676C269.214 185.28 268.757 185.145 268.342 184.882C267.926 184.62 267.561 184.237 267.276 183.763Z" fill="#E6E6E6"/>
<path d="M223.154 52.7124C222.863 52.2321 222.659 51.6714 222.559 51.0731C222.459 50.4748 222.465 49.8547 222.577 49.2599C225.245 34.7006 225.245 19.5275 222.577 4.96813C222.465 4.37334 222.459 3.7532 222.559 3.15491C222.659 2.55662 222.863 1.99595 223.154 1.51561C223.44 1.04174 223.804 0.658914 224.22 0.396271C224.636 0.133628 225.092 -0.00189791 225.555 1.22862e-05H254.076C254.805 0.00192603 255.509 0.340706 256.064 0.956067C256.619 1.57143 256.989 2.42343 257.107 3.3604C258.967 19.1034 258.967 35.1247 257.107 50.8676C256.989 51.8046 256.619 52.6566 256.064 53.272C255.509 53.8873 254.805 54.2261 254.076 54.228H225.555C225.092 54.23 224.636 54.0944 224.22 53.8318C223.804 53.5691 223.44 53.1863 223.154 52.7124Z" fill="#E6E6E6"/>
<path d="M293.335 96.5501C291.475 80.8071 291.475 64.7858 293.335 49.0428C293.453 48.1058 293.823 47.2538 294.378 46.6384C294.933 46.023 295.637 45.6842 296.366 45.6824H324.887C325.349 45.6805 325.806 45.816 326.222 46.0787C326.638 46.3413 327.002 46.7242 327.287 47.198C327.579 47.6784 327.782 48.239 327.882 48.8373C327.983 49.4356 327.977 50.0558 327.865 50.6506C325.197 65.2099 325.197 80.383 327.865 94.9423C327.976 95.5371 327.982 96.1573 327.882 96.7556C327.782 97.3539 327.579 97.9145 327.287 98.3949C327.002 98.8687 326.638 99.2516 326.222 99.5142C325.806 99.7768 325.349 99.9124 324.887 99.9105H296.366C295.637 99.9087 294.933 99.5699 294.378 98.9545C293.823 98.3391 293.453 97.4871 293.335 96.5501Z" fill="white"/>
<path d="M173.933 94.8913C172.073 79.1483 172.073 63.127 173.933 47.384C174.051 46.4471 174.42 45.5951 174.975 44.9797C175.53 44.3644 176.235 44.0256 176.964 44.0237H205.485C205.947 44.0217 206.404 44.1573 206.82 44.4199C207.235 44.6825 207.6 45.0654 207.885 45.5392C208.177 46.0196 208.38 46.5803 208.48 47.1785C208.58 47.7768 208.574 48.397 208.463 48.9918C205.795 63.5511 205.795 78.7242 208.462 93.2836C208.574 93.8783 208.58 94.4985 208.48 95.0968C208.38 95.6951 208.177 96.2557 207.885 96.7361C207.6 97.2099 207.235 97.5928 206.82 97.8554C206.404 98.1181 205.947 98.2536 205.485 98.2517H176.964C176.235 98.2497 175.53 97.911 174.975 97.2956C174.42 96.6802 174.051 95.8283 173.933 94.8913Z" fill="#FF6584"/>
<path d="M180.987 204.557C180.691 204.069 180.484 203.499 180.382 202.891C180.281 202.283 180.287 201.652 180.4 201.048C183.112 186.249 183.112 170.827 180.4 156.028C180.287 155.423 180.281 154.793 180.382 154.185C180.484 153.577 180.691 153.007 180.987 152.518C181.277 152.037 181.648 151.648 182.07 151.381C182.493 151.114 182.957 150.976 183.427 150.978H212.416C213.157 150.98 213.873 151.324 214.438 151.95C215.002 152.575 215.377 153.442 215.497 154.394C217.388 170.396 217.388 186.68 215.497 202.682C215.377 203.634 215.002 204.5 214.438 205.126C213.873 205.751 213.157 206.095 212.416 206.097H183.427C182.957 206.099 182.493 205.961 182.07 205.695C181.648 205.428 181.277 205.039 180.987 204.557Z" fill="white"/>
<path d="M9.00006 399H562.148C562.374 399 562.591 398.883 562.751 398.675C562.91 398.467 563 398.185 563 397.89C563 397.596 562.91 397.314 562.751 397.106C562.591 396.898 562.374 396.781 562.148 396.781H9.00006C8.888 396.78 8.77699 396.809 8.67337 396.864C8.56975 396.92 8.47557 397.001 8.39622 397.105C8.31687 397.208 8.25391 397.33 8.21095 397.465C8.16799 397.6 8.14587 397.744 8.14587 397.89C8.14587 398.036 8.16799 398.181 8.21095 398.316C8.25391 398.451 8.31687 398.573 8.39622 398.676C8.47557 398.779 8.56975 398.861 8.67337 398.916C8.77699 398.972 8.888 399 9.00006 399Z" fill="#3F3D56"/>
<path d="M206.822 171.315H191.551C190.982 171.315 190.436 171.02 190.034 170.496C189.632 169.971 189.405 169.261 189.405 168.52V167.332C189.405 166.591 189.632 165.88 190.034 165.356C190.436 164.832 190.982 164.537 191.551 164.536H206.822C207.391 164.537 207.937 164.832 208.339 165.356C208.741 165.88 208.967 166.591 208.968 167.332V168.52C208.967 169.261 208.741 169.971 208.339 170.496C207.937 171.02 207.391 171.315 206.822 171.315Z" fill="white"/>
<path d="M206.822 183.009H191.551C190.982 183.008 190.436 182.714 190.034 182.189C189.632 181.665 189.405 180.955 189.405 180.213V179.026C189.405 178.285 189.632 177.574 190.034 177.05C190.436 176.526 190.982 176.231 191.551 176.23H206.822C207.391 176.231 207.937 176.526 208.339 177.05C208.741 177.574 208.967 178.285 208.968 179.026V180.213C208.967 180.955 208.741 181.665 208.339 182.189C207.937 182.714 207.391 183.008 206.822 183.009Z" fill="white"/>
<path d="M196.708 67.0214H181.741C181.172 67.0206 180.627 66.7258 180.224 66.2016C179.822 65.6774 179.596 64.9668 179.595 64.2255V63.1334C179.596 62.3921 179.822 61.6814 180.224 61.1572C180.627 60.6331 181.172 60.3383 181.741 60.3375H196.708C197.277 60.3383 197.823 60.6331 198.225 61.1572C198.627 61.6814 198.853 62.3921 198.854 63.1334V64.2255C198.853 64.9668 198.627 65.6774 198.225 66.2016C197.823 66.7258 197.277 67.0206 196.708 67.0214Z" fill="white"/>
<path d="M292.331 149.155H277.364C276.795 149.154 276.25 148.859 275.847 148.335C275.445 147.811 275.219 147.1 275.218 146.359V145.266C275.219 144.525 275.445 143.814 275.847 143.29C276.25 142.766 276.795 142.471 277.364 142.471H292.331C292.9 142.471 293.445 142.766 293.848 143.29C294.25 143.814 294.476 144.525 294.477 145.266V146.359C294.476 147.1 294.25 147.811 293.848 148.335C293.445 148.859 292.9 149.154 292.331 149.155Z" fill="white"/>
<path d="M292.331 162.961H277.364C276.795 162.96 276.25 162.665 275.847 162.141C275.445 161.617 275.219 160.906 275.218 160.165V159.072C275.219 158.331 275.445 157.62 275.847 157.096C276.25 156.572 276.795 156.277 277.364 156.276H292.331C292.9 156.277 293.445 156.572 293.848 157.096C294.25 157.62 294.476 158.331 294.477 159.072V160.165C294.476 160.906 294.25 161.617 293.848 162.141C293.445 162.665 292.9 162.96 292.331 162.961Z" fill="white"/>
<path d="M292.331 176.766H277.364C276.795 176.765 276.25 176.471 275.847 175.946C275.445 175.422 275.219 174.712 275.218 173.97V172.878C275.219 172.136 275.445 171.426 275.847 170.902C276.25 170.377 276.795 170.083 277.364 170.082H292.331C292.9 170.083 293.445 170.377 293.848 170.902C294.25 171.426 294.476 172.136 294.477 172.878V173.97C294.476 174.712 294.25 175.422 293.848 175.946C293.445 176.471 292.9 176.765 292.331 176.766Z" fill="white"/>
<path d="M196.708 78.5262H181.741C181.172 78.5254 180.627 78.2306 180.224 77.7065C179.822 77.1823 179.596 76.4716 179.595 75.7303V74.6377C179.596 73.8965 179.822 73.1858 180.224 72.6616C180.627 72.1375 181.172 71.8427 181.741 71.8419H196.708C197.277 71.8427 197.823 72.1375 198.225 72.6616C198.627 73.1858 198.853 73.8965 198.854 74.6377V75.7303C198.853 76.4716 198.627 77.1823 198.225 77.7065C197.823 78.2306 197.277 78.5254 196.708 78.5262Z" fill="white"/>
<path d="M248.337 20.4054H233.371C232.802 20.4046 232.256 20.1098 231.854 19.5856C231.452 19.0614 231.225 18.3508 231.225 17.6095V16.5169C231.225 15.7756 231.452 15.065 231.854 14.5408C232.256 14.0166 232.802 13.7218 233.371 13.721H248.337C248.906 13.7218 249.452 14.0166 249.854 14.5408C250.256 15.065 250.483 15.7756 250.483 16.5169V17.6095C250.483 18.3508 250.256 19.0614 249.854 19.5856C249.452 20.1098 248.906 20.4046 248.337 20.4054Z" fill="white"/>
<path d="M316.631 69.8309H301.664C301.095 69.8301 300.55 69.5353 300.148 69.0111C299.745 68.487 299.519 67.7763 299.518 67.035V65.9424C299.519 65.2012 299.745 64.4905 300.148 63.9663C300.55 63.4422 301.095 63.1474 301.664 63.1465H316.631C317.2 63.1474 317.746 63.4422 318.148 63.9663C318.55 64.4905 318.777 65.2012 318.777 65.9424V67.035C318.777 67.7763 318.55 68.487 318.148 69.0111C317.746 69.5353 317.2 69.8301 316.631 69.8309Z" fill="white"/>
</svg>
